<svg xmlns="http://www.w3.org/2000/svg" xmlns:xlink="http://www.w3.org/1999/xlink" viewBox="0 0 798.17 260.864"><defs><style>.cls-1{fill:url(#linear-gradient);}.cls-2{fill:url(#linear-gradient-2);}.cls-3{fill:url(#linear-gradient-3);}.cls-4{fill:url(#linear-gradient-4);}.cls-5{fill:url(#linear-gradient-5);}.cls-6{fill:url(#linear-gradient-6);}.cls-7{fill:url(#linear-gradient-7);}.cls-8{fill:url(#linear-gradient-8);}.cls-9{fill:url(#linear-gradient-9);}.cls-10{fill:url(#linear-gradient-10);}.cls-11{fill:url(#linear-gradient-11);}.cls-12{fill:url(#linear-gradient-12);}</style><linearGradient id="linear-gradient" x1="223.105" y1="112.284" x2="17.594" y2="169.166" gradientUnits="userSpaceOnUse"><stop offset="0" stop-color="#f44336"/><stop offset="1" stop-color="#ff9800"/></linearGradient><linearGradient id="linear-gradient-2" x1="214.113" y1="79.797" x2="8.406" y2="136.734" xlink:href="#linear-gradient"/><linearGradient id="linear-gradient-3" x1="189.631" y1="-8.653" x2="-15.879" y2="48.23" xlink:href="#linear-gradient"/><linearGradient id="linear-gradient-4" x1="215.328" y1="84.186" x2="9.817" y2="141.069" xlink:href="#linear-gradient"/><linearGradient id="linear-gradient-5" x1="126.12" y1="237.938" x2="200.434" y2="151.697" gradientUnits="userSpaceOnUse"><stop offset="0" stop-color="#e91e63"/><stop offset="1" stop-color="#f06896"/></linearGradient><linearGradient id="linear-gradient-6" x1="94.083" y1="275.117" x2="234.07" y2="112.663" gradientUnits="userSpaceOnUse"><stop offset="0" stop-color="#d41b5a"/><stop offset="1" stop-color="#bd6eca"/></linearGradient><linearGradient id="linear-gradient-7" x1="332.188" y1="174.157" x2="781.263" y2="25.249" xlink:href="#linear-gradient-5"/><linearGradient id="linear-gradient-8" x1="334.336" y1="180.635" x2="783.412" y2="31.727" xlink:href="#linear-gradient-5"/><linearGradient id="linear-gradient-9" x1="344.576" y1="211.518" x2="793.652" y2="62.61" xlink:href="#linear-gradient-5"/><linearGradient id="linear-gradient-10" x1="350.685" y1="229.939" x2="799.76" y2="81.031" xlink:href="#linear-gradient-5"/><linearGradient id="linear-gradient-11" x1="367.319" y1="280.105" x2="816.395" y2="131.196" xlink:href="#linear-gradient-5"/><linearGradient id="linear-gradient-12" x1="303.696" y1="88.232" x2="752.772" y2="-60.676" xlink:href="#linear-gradient-5"/></defs><g id="Layer_2" data-name="Layer 2"><g id="Layer_1-2" data-name="Layer 1"><polygon class="cls-1" points="32.115 219.12 109.488 89.758 259.492 74.161 235.638 115.294 130.436 107.496 32.115 219.12"/><polygon class="cls-2" points="30.128 216.75 84.487 76.149 182.885 47.249 191.6 0 57.422 68.121 30.128 216.75"/><polygon class="cls-3" points="57.716 4.959 57.716 39.598 37.981 56.223 10.003 56.223 57.716 4.959"/><polygon class="cls-4" points="27.978 66.226 27.378 213.768 0 66.226 27.978 66.226"/><polygon class="cls-5" points="32.115 221.719 151.385 128.444 296.038 166.06 178.909 260.864 32.115 221.719"/><path class="cls-6" d="M32.115,221.719c126,.765,151.228-51.072,263.923-55.659l-117.129,94.8Z"/><path class="cls-7" d="M410.2,93.87V215.017H373.076V93.87Z"/><path class="cls-8" d="M533.954,63.258V75.85H467.085v56.666h56.448v12.592H467.085v69.909h-15.2V63.258Z"/><path class="cls-9" d="M569.559,70.857a10.914,10.914,0,0,1-3.256-8.034,10.562,10.562,0,0,1,3.256-7.924,11.277,11.277,0,0,1,15.632,0,10.562,10.562,0,0,1,3.256,7.924,10.914,10.914,0,0,1-3.256,8.034,11.009,11.009,0,0,1-15.632,0Zm15.414,25.619V215.017h-15.2V96.476Z"/><path class="cls-10" d="M645.544,54.357v160.66h-15.2V54.357Z"/><path class="cls-11" d="M797.736,161.609h-98.35q.649,13.463,6.513,23.013a38.313,38.313,0,0,0,15.416,14.437,45.076,45.076,0,0,0,20.841,4.885q14.762,0,24.86-7.165a33.637,33.637,0,0,0,13.352-19.322h16.065a50.209,50.209,0,0,1-18.562,28.333q-14.224,10.965-35.715,10.964a59.771,59.771,0,0,1-29.96-7.49,52.861,52.861,0,0,1-20.734-21.278q-7.493-13.784-7.491-32.24t7.382-32.348a51.3,51.3,0,0,1,20.626-21.278q13.24-7.379,30.177-7.382t29.635,7.382a51.012,51.012,0,0,1,19.54,19.866,56.662,56.662,0,0,1,6.839,27.681Q798.17,157.482,797.736,161.609Zm-20.3-34.955a35.933,35.933,0,0,0-15.088-14.112,46,46,0,0,0-20.844-4.777q-16.932,0-28.875,10.855t-13.243,30.612h83.37Q782.969,135.995,777.436,126.654Z"/><polygon class="cls-12" points="433.898 16.555 433.898 60.712 408.741 81.904 373.076 81.904 433.898 16.555"/></g></g></svg>